<?xml version="1.0" encoding="UTF-8"?>
<svg version="1.1" xmlns="http://www.w3.org/2000/svg" width="865" height="391">
<path d="M0 0 C0.86454803 -0.00637985 1.72909607 -0.0127597 2.61984253 -0.01933289 C4.01675827 -0.02100212 4.01675827 -0.02100212 5.44189453 -0.02270508 C6.88267868 -0.02769768 6.88267868 -0.02769768 8.35256958 -0.03279114 C10.38510662 -0.03785479 12.41765197 -0.04019964 14.45019531 -0.04003906 C17.55564121 -0.04222292 20.66073037 -0.0603774 23.76611328 -0.0793457 C25.74137248 -0.08228028 27.71663337 -0.08426464 29.69189453 -0.08520508 C30.61912323 -0.09239059 31.54635193 -0.09957611 32.50167847 -0.10697937 C40.75453841 -0.07782289 40.75453841 -0.07782289 44.69970703 2.14526367 C47.33740391 5.2225767 47.71558017 6.68494261 47.57470703 10.77026367 C46.3862742 15.3542189 46.3862742 15.3542189 43.69970703 17.14526367 C38.06025236 19.07841007 31.54000579 18.19934051 25.69970703 18.14526367 C25.69970703 24.41526367 25.69970703 30.68526367 25.69970703 37.14526367 C28.33970703 37.14526367 30.97970703 37.14526367 33.69970703 37.14526367 C53.51102768 39.8339429 71.42196142 48.18480129 85.69970703 62.14526367 C86.58658203 63.01151367 87.47345703 63.87776367 88.38720703 64.77026367 C89.15033203 65.55401367 89.91345703 66.33776367 90.69970703 67.14526367 C91.20630859 67.59514648 91.71291016 68.0450293 92.23486328 68.50854492 C104.62210136 79.87997305 111.36034377 96.26759349 115.69970703 112.14526367 C115.92787109 112.9419043 116.15603516 113.73854492 116.39111328 114.55932617 C117.77772778 120.20275022 117.90172202 125.79999802 117.94970703 131.58276367 C117.95905273 132.37706787 117.96839844 133.17137207 117.97802734 133.98974609 C117.95630391 137.88534329 117.90718531 139.83404626 115.69970703 143.14526367 C115.03970703 143.14526367 114.37970703 143.14526367 113.69970703 143.14526367 C113.69970703 143.80526367 113.69970703 144.46526367 113.69970703 145.14526367 C52.51477004 159.26130824 -1.73760152 162.1458617 -63.42529297 148.52026367 C-64.09849579 148.3743277 -64.77169861 148.22839172 -65.46530151 148.07803345 C-67.37375129 147.66127794 -69.27853316 147.22783254 -71.18310547 146.79370117 C-72.26994629 146.54797363 -73.35678711 146.30224609 -74.4765625 146.04907227 C-77.41603971 145.10821591 -79.17435045 144.38548387 -81.30029297 142.14526367 C-81.80200195 139.65258789 -81.80200195 139.65258789 -81.79638672 136.69995117 C-81.79735352 135.0834668 -81.79735352 135.0834668 -81.79833984 133.43432617 C-81.77835938 132.30768555 -81.75837891 131.18104492 -81.73779297 130.02026367 C-81.74488281 128.91682617 -81.75197266 127.81338867 -81.75927734 126.67651367 C-81.70693448 119.89609952 -80.82300742 114.41590231 -78.30029297 108.14526367 C-77.88650391 106.90905273 -77.47271484 105.6728418 -77.04638672 104.39916992 C-74.3491899 96.79065948 -71.21241767 89.62159108 -67.36279297 82.52026367 C-66.96825928 81.77462158 -66.57372559 81.02897949 -66.16723633 80.26074219 C-63.27857591 75.10346358 -59.91585851 71.77465153 -55.30029297 68.14526367 C-52.99245049 65.89511726 -50.73967509 63.60283373 -48.50732422 61.27807617 C-47.88212891 60.63612305 -47.25693359 59.99416992 -46.61279297 59.33276367 C-46.03142578 58.72819336 -45.45005859 58.12362305 -44.85107422 57.50073242 C-43.30029297 56.14526367 -43.30029297 56.14526367 -41.30029297 56.14526367 C-41.30029297 55.48526367 -41.30029297 54.82526367 -41.30029297 54.14526367 C-29.80735142 47.39658532 -18.97781394 42.27970288 -6.05029297 38.89526367 C-5.38835937 38.71954834 -4.72642578 38.54383301 -4.04443359 38.36279297 C0.49600364 37.2362226 3.84322553 37.14526367 8.69970703 37.14526367 C8.69970703 30.87526367 8.69970703 24.60526367 8.69970703 18.14526367 C5.63689453 18.23807617 5.63689453 18.23807617 2.51220703 18.33276367 C-3.46923265 18.51401942 -6.36456498 17.27113567 -11.11279297 13.83276367 C-13.00693958 11.14108165 -12.81244261 9.3461989 -12.30029297 6.14526367 C-8.5847549 1.62636602 -5.77058087 0.02894582 0 0 Z M-36.48779297 72.89526367 C-37.43746129 73.96794603 -38.37661351 75.05012276 -39.30029297 76.14526367 C-40.14591797 76.97026367 -40.99154297 77.79526367 -41.86279297 78.64526367 C-51.35759399 88.38352113 -56.55967093 98.49449708 -61.30029297 111.14526367 C-61.63416016 112.00893555 -61.96802734 112.87260742 -62.31201172 113.76245117 C-63.73245698 117.6565499 -64.5029312 121.27187078 -64.87451172 125.40698242 C-64.95660889 126.29732178 -65.03870605 127.18766113 -65.12329102 128.10498047 C-65.18170166 128.77827393 -65.2401123 129.45156738 -65.30029297 130.14526367 C-52.14126901 133.1792722 -38.98473372 136.15422788 -25.67529297 138.45776367 C-24.30232056 138.6960791 -24.30232056 138.6960791 -22.90161133 138.93920898 C12.80485564 144.94806427 67.21163691 146.88929873 100.69970703 130.14526367 C99.64343778 107.96360932 89.30448046 88.93519442 73.54736328 73.62963867 C44.57057969 48.34948179 -7.70575664 44.36242246 -36.48779297 72.89526367 Z " fill="#000000" transform="translate(110.30029296875,87.854736328125)"/>
<path d="M0 0 C5.37101545 3.79356822 7.91646881 8.31141659 11 14 C11.61875 15.134375 12.2375 16.26875 12.875 17.4375 C14.40805757 22.29218231 14.45491362 26.94346019 14 32 C13 33 13 33 9.5 33.125 C6 33 6 33 5 32 C4.70251599 29.94117504 4.43718682 27.87766668 4.1875 25.8125 C3.38051911 20.52101101 2.67720364 17.05435273 -1 13 C-1.58394531 12.34386719 -2.16789062 11.68773438 -2.76953125 11.01171875 C-10.63570475 3.02879314 -20.28329467 0.86083257 -31.25 0.5625 C-41.42300082 0.89323657 -49.38174677 3.38174677 -56.6875 10.6875 C-60.6848982 15.84918894 -62.33200241 21.56449753 -62.0625 28.0625 C-60.95908326 35.48757512 -56.62302179 40.00850087 -50.8125 44.4375 C-39.18539069 52.08415748 -26.09564566 57.14708002 -12.9921875 61.62109375 C5.68943962 68.02069784 21.72333579 77.25545172 30.77661133 95.43554688 C34.71037336 104.11727087 35.35535269 113.59237502 32.0625 122.57421875 C24.59818545 139.61590747 12.85505541 149.24914424 -4.2578125 156.17578125 C-24.98437696 162.4055606 -47.18284031 160.15550595 -66.32910156 150.34130859 C-76.36165276 144.83515257 -83.79919098 137.82026565 -88 127 C-88.36609375 126.175 -88.7321875 125.35 -89.109375 124.5 C-90.02778302 121.92201257 -90.23831503 120.03341397 -90.1875 117.3125 C-90.18105469 116.54550781 -90.17460937 115.77851563 -90.16796875 114.98828125 C-90 113 -90 113 -89 111 C-86.66705225 110.95758277 -84.33297433 110.95907063 -82 111 C-80.29288477 112.70711523 -80.58658367 115.16586807 -80.3125 117.5 C-78.95692418 125.89260909 -74.89653798 132.26157773 -68.22265625 137.52734375 C-51.47180655 148.62588564 -31.8609872 151.80022127 -12.1875 147.9375 C0.91508622 144.40214745 12.68548027 137.6642785 20 126 C24.30113017 117.41441072 24.7461707 109.12388953 22 100 C17.40146142 89.9185885 9.76848638 82.97224757 0 78 C-0.79664063 77.59394531 -1.59328125 77.18789062 -2.4140625 76.76953125 C-9.03372041 73.60316237 -15.91042063 71.16302031 -22.79833984 68.65869141 C-61.36632186 54.57637856 -61.36632186 54.57637856 -69.2578125 38.42578125 C-73.04369102 28.93461027 -73.01662775 21.37213142 -69 12 C-64.41930964 2.25135128 -56.74721215 -3.12122968 -47.125 -7.3125 C-30.86524664 -12.92166072 -14.29381204 -8.1826895 0 0 Z " fill="#000000" transform="translate(336,101)"/>
<path d="M0 0 C1.24265625 0.43054688 2.4853125 0.86109375 3.765625 1.3046875 C16.337564 5.6355796 29.95487415 7.55264178 43 10 C44.07765625 10.20222168 45.1553125 10.40444336 46.265625 10.61279297 C86.66251 17.79400152 133.51100129 14.09534686 172.12353516 0.57788086 C174.48666935 -0.14987593 176.59848252 -0.30483417 179.0625 -0.1875 C180.361875 -0.125625 181.66125 -0.06375 183 0 C183 0.66 183 1.32 183 2 C183.99 2.33 184.98 2.66 186 3 C187.56935594 6.13871188 187.35201103 8.53855822 187 12 C182.96692788 17.38844882 178.37198675 18.46230017 172.125 19.9375 C171.13411377 20.18274414 170.14322754 20.42798828 169.12231445 20.68066406 C160.52380953 22.75310059 151.8635505 24.53690045 143.1875 26.25 C141.95080566 26.49613037 140.71411133 26.74226074 139.43994141 26.99584961 C122.21969356 30.27918895 105.38377676 31.38284735 87.875 31.3125 C86.38533218 31.30876877 86.38533218 31.30876877 84.86557007 31.30496216 C70.03884786 31.24759646 55.59959082 30.7814098 41 28 C39.6606524 27.75044605 38.32129635 27.50093747 36.98193359 27.25146484 C32.48193148 26.40579906 27.98966197 25.52383507 23.5 24.625 C22.79356354 24.48424042 22.08712708 24.34348083 21.35928345 24.19845581 C13.5114523 22.61517477 5.80785847 20.76402025 -1.84375 18.3984375 C-2.85520081 18.08708359 -2.85520081 18.08708359 -3.88708496 17.7694397 C-6.95596598 16.78770338 -9.2962741 15.80248393 -12 14 C-12.43359375 11.50390625 -12.43359375 11.50390625 -12.4375 8.5625 C-12.45683594 7.59441406 -12.47617187 6.62632812 -12.49609375 5.62890625 C-12 3 -12 3 -10.203125 1.17578125 C-6.84295674 -0.61750004 -3.67679861 -0.4976056 0 0 Z " fill="#000000" transform="translate(41,257)"/>
<path d="M0 0 C9.86109872 8.06817168 16.92257307 18.34439085 19 31 C19.60438049 39.07082079 19.47999034 47.19423719 19.51123047 55.28271484 C19.52692154 58.09236696 19.5598883 60.90145514 19.59375 63.7109375 C19.59072876 64.5693222 19.58770752 65.42770691 19.58459473 66.31210327 C19.64346448 70.99899142 19.89168127 74.22857327 23 78 C25.47061919 79.02273864 25.47061919 79.02273864 28.1875 79.3125 C29.08855469 79.45300781 29.98960937 79.59351563 30.91796875 79.73828125 C31.94857422 79.86783203 31.94857422 79.86783203 33 80 C33.09765625 86.15234375 33.09765625 86.15234375 33 88 C31.45923813 89.54076187 30.0155515 89.24356699 27.875 89.3125 C23.15072295 89.22265638 19.55778185 88.19266342 16 85 C12.3724865 80.61095432 9.86216828 76.68429554 9 71 C8.58492188 71.4846875 8.16984375 71.969375 7.7421875 72.46875 C-0.84780102 81.81350739 -12.26005995 88.58487394 -25.11328125 89.3359375 C-26.512768 89.36555627 -27.91270356 89.37821977 -29.3125 89.375 C-30.05234131 89.37338867 -30.79218262 89.37177734 -31.55444336 89.37011719 C-37.96777842 89.22767621 -43.20515081 87.77689944 -49 85 C-49.70253906 84.71125 -50.40507812 84.4225 -51.12890625 84.125 C-63.00244956 78.9201591 -70.20784929 68.91558471 -74.8125 57.1875 C-79.90249604 43.40003501 -78.64651793 31.33075996 -73 18 C-71.57163232 15.09208535 -69.98054603 12.55938756 -68 10 C-67.49855469 9.32582031 -66.99710937 8.65164062 -66.48046875 7.95703125 C-50.02937568 -12.57793972 -20.87127647 -13.96511471 0 0 Z M-59.33203125 13.51171875 C-66.18625345 22.22255773 -69.82860182 32.24214508 -69.3125 43.38671875 C-67.86895969 55.45832457 -61.69402902 65.58272918 -52.40625 73.34375 C-42.89350971 79.89148033 -31.45629147 81.5020266 -20.20703125 79.50390625 C-14.49240818 77.93570736 -9.78285818 75.46206889 -5 72 C-4.40445313 71.61585938 -3.80890625 71.23171875 -3.1953125 70.8359375 C3.45163841 66.02059084 7.57550453 57.2722706 9.6796875 49.484375 C11.31222454 36.82225848 9.897661 25.2545546 2 15 C-4.30748033 7.2550009 -12.94626054 1.41623884 -23 0 C-37.9485943 -1.01877707 -48.93750999 2.3162796 -59.33203125 13.51171875 Z " fill="#000000" transform="translate(451,171)"/>
<path d="M0 0 C1.17949219 0.56074219 1.17949219 0.56074219 2.3828125 1.1328125 C13.97160234 7.06470154 21.3281184 15.94913259 26.1640625 27.98828125 C29.18228429 37.35879023 28.6056049 47.25881038 28.625 57 C28.64137752 59.94554548 28.66340333 62.8907767 28.69662476 65.83618164 C28.71617002 67.65689962 28.72559885 69.47776226 28.72354126 71.29858398 C28.73050018 72.12044189 28.73745911 72.9422998 28.74462891 73.7890625 C28.74588776 74.50787598 28.74714661 75.22668945 28.7484436 75.96728516 C29.04790206 78.38707517 29.70288305 79.93861494 31 82 C33.90092502 83.93395001 34.89674737 84.30131941 38.1875 84.625 C39.445625 84.74875 40.70375 84.8725 42 85 C42 87.97 42 90.94 42 94 C32.01375516 94.45392022 32.01375516 94.45392022 27 91 C22.24050283 86.59046585 19.93946873 82.14165098 18 76 C17.5359375 76.556875 17.071875 77.11375 16.59375 77.6875 C8.68964215 86.41741016 -2.96166774 93.51403541 -14.94140625 94.23828125 C-24.02756545 94.45696375 -31.74069906 94.23520064 -40 90 C-40.84820313 89.57589844 -41.69640625 89.15179688 -42.5703125 88.71484375 C-53.98784756 82.44742007 -62.30310114 72.75423029 -66.875 60.5625 C-70.01482022 48.64246397 -69.28976127 34.11294384 -64 23 C-61.62416498 19.05230016 -58.96532877 15.52097355 -56 12 C-55.25169922 11.03126953 -55.25169922 11.03126953 -54.48828125 10.04296875 C-41.72155607 -4.80128126 -17.06775478 -8.56185731 0 0 Z M-51.9140625 20.234375 C-59.09548034 30.2105318 -60.03230583 41.06982925 -59 53 C-56.805003 64.30162147 -50.75461064 72.77008855 -41.5 79.4921875 C-31.84020997 85.31824836 -21.10978612 86.51921869 -10.1015625 84.45703125 C-5.09902751 83.09748345 -1.11147299 81.21767451 3 78 C3.63679687 77.51789063 4.27359375 77.03578125 4.9296875 76.5390625 C11.57651499 71.19651814 17.08633174 64.00627206 18.75 55.4453125 C20.08837544 42.3543277 19.50545647 30.63234524 11.375 19.6875 C3.82025531 10.98555334 -4.81015798 5.77080866 -16.3203125 4.6875 C-31.12837897 4.16677678 -42.2130841 8.90996756 -51.9140625 20.234375 Z M19 73 C20 75 20 75 20 75 Z " fill="#000000" transform="translate(796,166)"/>
<path d="M0 0 C0.6909375 0.27714844 1.381875 0.55429688 2.09375 0.83984375 C11.85701855 5.04347327 20.41705891 13.58312071 24.37109375 23.40625 C29.806134 38.03086164 30.74452688 50.13653885 25 65 C24.60167969 66.09054688 24.60167969 66.09054688 24.1953125 67.203125 C19.99135914 77.05238716 11.57632415 84.62669673 2 89 C0.58302238 89.74941235 -0.83365604 90.49939075 -2.25 91.25 C-10.85362245 95.73564931 -24.10760787 95.41196725 -33.375 92.875 C-34.93628614 92.30076425 -36.4788902 91.67348801 -38 91 C-38.88945313 90.60941406 -39.77890625 90.21882813 -40.6953125 89.81640625 C-52.44624848 84.0391355 -60.97103495 74.57453672 -66.02734375 62.55859375 C-70.13332832 50.16495368 -69.54429874 34.78745866 -64 23 C-61.62635589 19.05079169 -58.96537586 15.52102947 -56 12 C-55.25169922 11.03126953 -55.25169922 11.03126953 -54.48828125 10.04296875 C-41.55972028 -4.98945254 -17.2601497 -8.25610494 0 0 Z M-51.65234375 19.71875 C-59.23767514 29.12548315 -60.14284916 41.44452514 -59 53 C-57.45513003 60.27823765 -54.87153328 66.35927726 -50 72 C-49.34 72 -48.68 72 -48 72 C-47.67 72.99 -47.34 73.98 -47 75 C-39.86223412 82.51871406 -29.37038415 85.16470361 -19.3125 85.4375 C-10.88832669 85.14245045 -3.69176728 83.26798701 3 78 C3.69867187 77.49082031 4.39734375 76.98164063 5.1171875 76.45703125 C12.55161148 70.58709043 18.41285666 61.50418779 20 52 C21.01862085 38.89151855 18.41601885 28.23417882 10 18 C3.00635142 10.45598753 -5.41435243 5.65080802 -15.77734375 4.76171875 C-30.88781102 4.40683757 -41.19233891 8.83836672 -51.65234375 19.71875 Z " fill="#000000" transform="translate(634,166)"/>
<path d="M0 0 C3.46679688 0.04882812 3.46679688 0.04882812 6.93359375 0.09765625 C13.29513344 12.74607523 19.54680245 25.44773642 25.77880859 38.16040039 C27.42923091 41.5262587 29.08176498 44.89107478 30.734375 48.25585938 C36.57254416 60.15510125 42.34767691 72.0777372 47.93359375 84.09765625 C55.14316008 69.23985099 62.2459054 54.34336001 69.17407227 39.35205078 C72.75232214 31.61797454 76.37882362 23.90895713 80.05859375 16.22265625 C80.50799316 15.28389648 80.95739258 14.34513672 81.42041016 13.37792969 C83.55477882 8.93207993 85.71066765 4.49992165 87.93359375 0.09765625 C91.23359375 0.09765625 94.53359375 0.09765625 97.93359375 0.09765625 C97.31847403 3.97207746 96.14538635 7.06516739 94.4140625 10.578125 C93.89215332 11.64716064 93.37024414 12.71619629 92.83251953 13.81762695 C92.26774902 14.96191162 91.70297852 16.10619629 91.12109375 17.28515625 C89.93127203 19.71829303 88.74639787 22.15381993 87.5625 24.58984375 C87.10910248 25.52142052 87.10910248 25.52142052 86.64654541 26.47181702 C83.52298956 32.90794331 80.53517422 39.40492989 77.55859375 45.91015625 C73.51252909 54.73147647 69.34924801 63.45469317 64.93359375 72.09765625 C63.55365817 74.84519433 62.18129872 77.5965001 60.80859375 80.34765625 C60.13945123 81.68626207 59.47018424 83.02480567 58.80078125 84.36328125 C58.48463867 84.99556641 58.16849609 85.62785156 57.84277344 86.27929688 C55.87304688 90.21875 53.90332031 94.15820312 51.93359375 98.09765625 C49.29359375 98.09765625 46.65359375 98.09765625 43.93359375 98.09765625 C33.09137007 77.97237823 23.40650072 57.31719511 13.7807312 36.59112549 C9.8192737 28.06394562 5.77685863 19.59262261 1.484375 11.2265625 C-0.16766872 7.89334582 -1.63065819 4.52870373 -3.06640625 1.09765625 C-2.06640625 0.09765625 -2.06640625 0.09765625 0 0 Z " fill="#000000" transform="translate(471.06640625,161.90234375)"/>
<path d="M0 0 C0 2.97 0 5.94 0 9 C-1.19496094 9.14695313 -1.19496094 9.14695313 -2.4140625 9.296875 C-10.22327304 10.39890471 -15.36664753 11.51258727 -20.3125 18.0625 C-22.91710693 22.5964454 -23.13914131 25.85674465 -23.18945312 31.02587891 C-23.19774643 31.73672134 -23.20603973 32.44756378 -23.21458435 33.1799469 C-23.23196871 34.72191786 -23.24713993 36.263915 -23.26036072 37.80592728 C-23.28139073 40.24287054 -23.30841089 42.67968152 -23.33703613 45.11654663 C-23.40686188 51.16635568 -23.46636395 57.21625835 -23.52606201 63.26617432 C-23.57691053 68.38172469 -23.63169667 73.49720248 -23.69187927 78.61265182 C-23.71853479 81.01962913 -23.73929667 83.42661294 -23.7598877 85.83364868 C-23.77648251 87.3000725 -23.79335362 88.76649323 -23.81054688 90.23291016 C-23.82307495 91.51847809 -23.83560303 92.80404602 -23.84851074 94.12857056 C-24 97 -24 97 -25 98 C-27.67058851 98.14115161 -30.32432238 98.04247107 -33 98 C-33.09294259 88.24634942 -33.16388763 78.49280531 -33.20724869 68.738801 C-33.22806663 64.20892688 -33.25627747 59.67935717 -33.30175781 55.1496582 C-33.34542351 50.77298454 -33.36918062 46.3966025 -33.37950897 42.01972771 C-33.38686334 40.3552587 -33.40122435 38.6908045 -33.42292023 37.02646065 C-33.54822575 27.00978126 -33.31048841 18.91045135 -27.2109375 10.546875 C-18.96436035 2.47575694 -11.626876 -0.99469472 0 0 Z " fill="#000000" transform="translate(700,162)"/>
<path d="M0 0 C2.64 0 5.28 0 8 0 C8 32.34 8 64.68 8 98 C5.36 98 2.72 98 0 98 C-1.89751904 96.10248096 -1.12671315 93.31942229 -1.13552856 90.79440308 C-1.13350433 89.9018985 -1.1314801 89.00939392 -1.12939453 88.08984375 C-1.13114685 87.15496124 -1.13289917 86.22007874 -1.13470459 85.25686646 C-1.13912474 82.15039238 -1.13618454 79.04397471 -1.1328125 75.9375 C-1.13348549 73.78898101 -1.13445548 71.64046209 -1.13571167 69.49194336 C-1.13718886 64.98257728 -1.13503339 60.47323097 -1.13037109 55.96386719 C-1.1246738 50.16951423 -1.12795269 44.37520758 -1.13394356 38.58085632 C-1.13754859 34.14237109 -1.13641085 29.70389693 -1.13381577 25.26541138 C-1.13314634 23.12826533 -1.13397547 20.99111829 -1.13629532 18.85397339 C-1.1388209 15.87267374 -1.13498259 12.8914502 -1.12939453 9.91015625 C-1.13141876 9.01765167 -1.13344299 8.12514709 -1.13552856 7.20559692 C-1.11426232 1.11426232 -1.11426232 1.11426232 0 0 Z " fill="#000000" transform="translate(711,162)"/>
<path d="M0 0 C1.15628906 0.08765625 2.31257812 0.1753125 3.50390625 0.265625 C6.4375 0.75 6.4375 0.75 8.4375 2.75 C8.9375 6.0625 8.9375 6.0625 8.4375 9.75 C5.6875 12.4375 5.6875 12.4375 2.4375 14.75 C1.08650897 16.06543863 -0.25455669 17.39175118 -1.5625 18.75 C-9.59765625 10.09179688 -9.59765625 10.09179688 -10.5625 5.75 C-10.375 3.5625 -10.375 3.5625 -9.5625 1.75 C-5.86918054 -0.71221297 -4.34996392 -0.36938241 0 0 Z " fill="#000000" transform="translate(616.5625,202.25)"/>
<path d="M0 0 C0.85464844 -0.01675781 1.70929688 -0.03351563 2.58984375 -0.05078125 C5.54064873 0.38274934 6.88347006 1.3142416 9.0625 3.3125 C10 5.1875 10 5.1875 10.0625 7.3125 C7.9522078 11.9054889 4.39860334 15.56613152 1.0625 19.3125 C-3.372279 15.79955709 -7.40417671 12.48929106 -9.9375 7.3125 C-8.76545104 1.58248286 -5.54902915 0.02503321 0 0 Z " fill="#000000" transform="translate(422.9375,201.6875)"/>
<path d="M0 0 C0.86625 0.00644531 1.7325 0.01289063 2.625 0.01953125 C5 0.1875 5 0.1875 8 1.1875 C10 4.1875 10 4.1875 10.5625 6.4375 C9.64929464 10.90205955 6.28574683 13.21836689 3 16.1875 C1.99434083 17.18180862 0.9923375 18.17989577 0 19.1875 C-1.12721436 17.91863036 -2.25168658 16.64732438 -3.375 15.375 C-4.00148438 14.66730469 -4.62796875 13.95960938 -5.2734375 13.23046875 C-9.03616481 8.77819187 -9.03616481 8.77819187 -8.8125 5.125 C-7.44139014 0.16791049 -4.62592851 -0.07572204 0 0 Z " fill="#000000" transform="translate(777,201.8125)"/>
<path d="M0 0 C1.59134766 -0.03867188 1.59134766 -0.03867188 3.21484375 -0.078125 C6.0625 0.25 6.0625 0.25 7.94140625 1.390625 C9.64068223 4.20893637 9.54840346 6.018742 9.0625 9.25 C7.09375 11.8046875 7.09375 11.8046875 4.5625 14.125 C3.30953125 15.29675781 3.30953125 15.29675781 2.03125 16.4921875 C1.3815625 17.07226562 0.731875 17.65234375 0.0625 18.25 C-1.60416667 16.58333333 -3.27083333 14.91666667 -4.9375 13.25 C-5.68 12.569375 -6.4225 11.88875 -7.1875 11.1875 C-9.07404546 9.09882467 -9.76266397 8.04737652 -9.9375 5.25 C-7.97134058 -0.04350613 -5.29647476 0.07703963 0 0 Z " fill="#000000" transform="translate(713.9375,129.75)"/>
</svg>
